<svg width="289" height="289" viewBox="0 0 289 289" fill="none" xmlns="http://www.w3.org/2000/svg">
<path d="M58.4754 198.999C58.4754 198.999 81.8324 228.576 121.749 229.778C161.666 230.98 197.363 206.08 226.812 186.705C256.261 167.331 265.925 134.87 251.221 108.097C236.517 81.3245 209.836 90.4973 177.815 71.6834C145.794 52.8695 140.054 43.0031 102.883 44.6908C65.712 46.3786 34.9913 86.0756 36.3438 130.547C37.6963 175.018 58.4754 198.999 58.4754 198.999Z" fill="#BDB0C5"/>
<path opacity="0.7" d="M58.4754 198.999C58.4754 198.999 81.8324 228.576 121.749 229.778C161.666 230.98 197.363 206.08 226.812 186.705C256.261 167.331 265.925 134.87 251.221 108.097C236.517 81.3245 209.836 90.4973 177.815 71.6834C145.794 52.8695 140.054 43.0031 102.883 44.6908C65.712 46.3786 34.9913 86.0756 36.3438 130.547C37.6963 175.018 58.4754 198.999 58.4754 198.999Z" fill="white"/>
<path d="M65.7363 52.6447C65.7016 52.6447 66.1409 50.4888 66.1814 50.3327C66.6785 48.7894 68.5512 46.1075 70.3603 46.1133C70.6617 46.1218 70.9579 46.1937 71.2295 46.3244C71.5012 46.4552 71.7423 46.6417 71.937 46.8718C72.1317 47.102 72.2757 47.3707 72.3596 47.6602C72.4435 47.9498 72.4653 48.2538 72.4238 48.5525C72.2908 49.8241 71.1464 50.9107 70.1118 51.5349C68.898 52.2921 65.7363 52.6447 65.7363 52.6447Z" fill="#BDB0C5"/>
<path d="M62.2288 38.1485C63.9628 38.7612 64.7836 41.917 64.7258 43.5354C64.7258 43.6742 64.4021 45.8474 64.3732 45.8474H64.3385C64.4715 46.3445 64.616 46.8821 64.7605 47.4716C65.0148 48.5583 65.2922 49.7836 65.5061 51.1477C65.7541 52.6089 65.9162 54.0834 65.9916 55.5636C66.0838 57.2222 66.0277 58.8858 65.824 60.5344C65.8213 60.5536 65.8213 60.573 65.824 60.5922C66.0494 60.1125 66.7199 58.7831 66.7777 58.6906C67.6678 57.3381 70.1763 55.2226 71.9277 55.7255C72.2152 55.8132 72.4811 55.9605 72.7078 56.1579C72.9346 56.3552 73.1172 56.5982 73.2438 56.8709C73.3703 57.1436 73.4379 57.4399 73.4422 57.7405C73.4465 58.0411 73.3873 58.3393 73.2686 58.6155C72.8062 59.8061 71.419 60.5518 70.2573 60.8812C68.9452 61.2569 66.0205 60.8176 65.7893 60.7772C65.5421 62.4505 65.183 64.1054 64.7142 65.7306C64.4445 66.6786 64.1517 67.6245 63.8357 68.5686C64.038 68.1582 64.2287 67.7941 64.2576 67.7479C65.1477 66.3896 67.662 64.2799 69.4076 64.7827C69.6952 64.8704 69.961 65.0178 70.1878 65.2151C70.4145 65.4125 70.5971 65.6555 70.7237 65.9282C70.8502 66.2009 70.9178 66.4972 70.9221 66.7978C70.9264 67.0984 70.8673 67.3965 70.7486 67.6727C70.2862 68.8634 68.899 69.609 67.7372 69.9385C66.5754 70.2679 64.0553 69.9385 63.3964 69.8518L63.0323 70.9384C62.4543 72.6724 61.8242 74.4064 61.2983 76.1057C61.1075 76.6837 60.9399 77.308 60.7723 77.9091C60.9572 77.5449 61.1133 77.2386 61.1422 77.1924C62.0265 75.8399 64.5408 73.7244 66.2864 74.2272C66.5734 74.3159 66.8387 74.4637 67.0651 74.6611C67.2915 74.8585 67.474 75.1012 67.6009 75.3735C67.7278 75.6457 67.7962 75.9416 67.8018 76.2419C67.8073 76.5423 67.7499 76.8404 67.6331 77.1172C67.1707 78.3137 65.7778 79.0535 64.616 79.3888C63.4542 79.724 61.1827 79.4292 60.3966 79.3194C60.2405 79.9379 60.0902 80.5563 59.9689 81.1632C59.8937 81.5852 59.7955 81.9782 59.7434 82.4001L59.57 83.6429C59.4891 84.4347 59.3966 85.2497 59.3388 86.0242C59.2926 86.5617 59.2579 87.0762 59.2232 87.5964C59.4082 87.0184 59.8012 85.8219 59.8012 85.7294C60.4413 84.4578 61.3965 83.3713 62.5756 82.5735C62.6385 82.4262 62.718 82.2866 62.8126 82.1574C62.9763 81.9049 63.1913 81.6897 63.4438 81.526C63.6963 81.3623 63.9805 81.2537 64.2778 81.2073C64.5751 81.1609 64.8789 81.1778 65.1692 81.2569C65.4596 81.3359 65.73 81.4754 65.9627 81.6661C67.3384 82.851 66.9916 86.0993 66.3615 87.5906C66.3269 87.6773 65.8124 88.5847 65.483 89.157C65.7315 88.8506 65.9627 88.5501 66.2228 88.2437C66.7257 87.6253 67.2459 87.0241 67.8008 86.3768L68.6504 85.4578C68.9279 85.1456 69.2631 84.8798 69.5694 84.5387C70.2919 83.8394 71.0607 83.1631 71.8525 82.4984C71.315 82.0591 69.4192 80.4638 68.8758 79.3772C68.3325 78.2906 67.9453 76.7704 68.5117 75.6202C68.6363 75.3459 68.8171 75.1008 69.0425 74.9009C69.2678 74.701 69.5327 74.5506 69.8199 74.4596C70.1071 74.3686 70.4102 74.339 70.7096 74.3726C71.009 74.4063 71.2979 74.5025 71.5578 74.655C73.0895 75.6202 73.2455 78.8859 72.8467 80.4349C72.8467 80.5332 72.4074 81.6256 72.1704 82.221C72.6502 81.8279 73.1241 81.4349 73.6212 81.065C75.0547 79.961 76.5401 78.8801 78.014 77.7993L79.3608 76.8051C79.17 76.6491 76.8811 74.7995 76.2685 73.5799C75.7309 72.499 75.3379 70.9731 75.9043 69.8286C76.0282 69.5537 76.2087 69.308 76.4339 69.1076C76.6592 68.9071 76.9242 68.7564 77.2116 68.6653C77.4991 68.5742 77.8025 68.5448 78.1021 68.5789C78.4017 68.613 78.6908 68.71 78.9504 68.8634C80.4879 69.8229 80.6381 73.0886 80.2393 74.6434C80.2104 74.759 79.6151 76.3312 79.4475 76.7242C80.4301 75.9901 81.4069 75.2503 82.3375 74.4758C83.6036 73.4436 84.8007 72.3295 85.9211 71.1407C85.8344 71.0656 83.4357 69.1466 82.8114 67.9039C82.2681 66.8231 81.8808 65.2914 82.4473 64.1469C82.5712 63.8728 82.7515 63.6278 82.9763 63.4279C83.2012 63.228 83.4655 63.0777 83.7523 62.9866C84.039 62.8956 84.3417 62.8659 84.6407 62.8995C84.9396 62.9331 85.2282 63.0292 85.4876 63.1817C87.025 64.1469 87.1811 67.4126 86.7823 68.9616C86.7823 69.0657 86.3025 70.2621 86.0771 70.8286L86.1638 70.8864C87.2588 69.6576 88.2433 68.3346 89.1058 66.9329C89.5914 66.1641 90.0075 65.407 90.4006 64.6613C89.915 64.3492 87.7244 62.8984 87.0366 61.8407C86.3488 60.783 85.8286 59.3495 86.2621 58.1473C86.355 57.8607 86.5072 57.5969 86.7089 57.3731C86.9106 57.1493 87.1571 56.9704 87.4325 56.8483C87.7079 56.7261 88.0059 56.6634 88.3072 56.6641C88.6085 56.6649 88.9062 56.7291 89.181 56.8526C90.8167 57.6444 91.3254 60.8986 91.0999 62.4765C91.0999 62.5632 90.8687 63.436 90.7011 64.066C90.8687 63.725 91.0537 63.3782 91.2098 63.0487C91.7878 61.8176 92.2791 60.65 92.6837 59.5807C92.9149 59.0027 93.1056 58.4536 93.2617 57.945C92.9438 57.367 91.7068 55.1475 91.5855 53.899C91.4641 52.6505 91.6606 51.1361 92.6027 50.2691C92.8173 50.058 93.0738 49.8944 93.3557 49.789C93.6376 49.6836 93.9386 49.6387 94.239 49.6572C94.5394 49.6757 94.8325 49.7573 95.0993 49.8966C95.3661 50.0359 95.6006 50.2298 95.7875 50.4656C96.8742 51.9164 95.8395 55.0203 94.9032 56.3381C94.8223 56.4537 93.3484 58.0721 93.331 58.0721V58.0375C93.1692 58.5288 92.9958 59.0547 92.7877 59.6212C92.4062 60.6731 91.9612 61.8523 91.3889 63.0892C90.784 64.4426 90.1028 65.7606 89.3486 67.0369C88.5069 68.4685 87.5398 69.8225 86.4586 71.0829L86.4181 71.1292C86.869 70.8517 88.1521 70.1119 88.262 70.0656C89.7532 69.4298 93.0016 69.0715 94.1922 70.4356C94.3839 70.6677 94.5245 70.9376 94.605 71.2277C94.6854 71.5177 94.7039 71.8215 94.6592 72.1192C94.6145 72.4169 94.5076 72.7018 94.3455 72.9555C94.1834 73.2091 93.9697 73.4258 93.7183 73.5914C92.6721 74.3313 91.1057 74.1694 89.9497 73.8226C88.6492 73.4065 86.4817 71.4297 86.2852 71.2679C85.1563 72.5274 83.9436 73.7092 82.6554 74.8052C81.9097 75.4468 81.1352 76.071 80.3434 76.6895C80.7422 76.4583 81.1005 76.256 81.1526 76.2329C82.638 75.5971 85.8864 75.2387 87.0771 76.6028C87.2696 76.8346 87.4109 77.1044 87.4919 77.3946C87.5729 77.6849 87.5916 77.9889 87.5468 78.2869C87.5021 78.5849 87.3949 78.87 87.2322 79.1236C87.0696 79.3773 86.8552 79.5937 86.6031 79.7587C85.5627 80.4985 83.9905 80.3367 82.8403 79.9899C81.6901 79.6431 79.7654 77.9669 79.2683 77.5218C78.9619 77.753 78.6903 77.99 78.3608 78.227C76.91 79.3367 75.4708 80.4407 74.0547 81.5736C73.5634 81.9667 73.0952 82.377 72.6213 82.7874L73.3264 82.3944C74.8119 81.7586 78.0603 81.3944 79.2509 82.7585C79.4427 82.9911 79.5834 83.2615 79.6639 83.552C79.7444 83.8425 79.7629 84.1468 79.7182 84.4449C79.6735 84.743 79.5666 85.0285 79.4045 85.2826C79.2423 85.5368 79.0285 85.754 78.777 85.9202C77.7366 86.66 76.1644 86.4982 75.0142 86.1456C73.864 85.793 72.1242 84.2844 71.5462 83.7584C71.078 84.1919 70.6041 84.6254 70.1706 85.0647C69.8758 85.3711 69.5926 85.6427 69.3036 85.9722L68.4712 86.9085C67.9684 87.527 67.4424 88.157 66.9627 88.7697C66.6274 89.1916 66.3153 89.602 66.0032 90.0182C66.4829 89.6136 67.454 88.8622 67.5407 88.7928C68.9105 87.9374 72.0722 87.0588 73.4536 88.2611C73.6775 88.4622 73.8565 88.7081 73.9791 88.983C74.1017 89.2578 74.165 89.5554 74.165 89.8563C74.165 90.1573 74.1017 90.4549 73.9791 90.7297C73.8565 91.0046 73.6775 91.2505 73.4536 91.4516C72.5288 92.3417 70.9566 92.4342 69.766 92.2493C68.4481 92.0412 66.0668 90.5153 65.772 90.2956C65.2518 90.9834 64.7547 91.6481 64.2923 92.2897C62.6912 94.5035 61.4428 96.4109 60.5873 97.7518L60.5006 97.8905L59.3909 97.353L59.5643 97.0871C60.4602 95.7462 61.7664 93.8503 63.4311 91.6539C63.9571 90.9546 64.5293 90.2205 65.1246 89.4749C64.5055 88.7984 63.9265 88.0862 63.3906 87.342C62.1132 87.8449 59.466 87.8622 59.1192 87.8622C59.0672 88.7177 59.0209 89.5558 58.9863 90.3419C58.8707 93.07 58.8822 95.3473 58.9111 96.9426V97.1276L57.6915 96.5496C57.6915 94.9659 57.7551 92.8273 57.917 90.2956C57.969 89.4286 58.0441 88.4981 58.1308 87.5443C57.7898 87.4576 55.0327 86.7525 53.9923 85.9202C53.0502 85.163 52.056 83.9434 52.0907 82.6602C52.0884 82.3592 52.1495 82.0611 52.27 81.7852C52.3906 81.5094 52.5678 81.262 52.7903 81.0592C53.0127 80.8563 53.2754 80.7026 53.5612 80.608C53.8469 80.5134 54.1494 80.4801 54.449 80.5101C56.2465 80.7413 57.7551 83.6429 58.0499 85.2323C58.0499 85.3306 58.1424 86.3883 58.1771 87.0241C58.2175 86.6369 58.2464 86.2554 58.2927 85.8681C58.3678 85.0763 58.4718 84.2902 58.5817 83.4405C58.6452 83.0302 58.7146 82.6198 58.7782 82.2036C58.8418 81.7875 58.9516 81.3597 59.0383 80.932C59.2579 79.9494 59.5238 78.961 59.8186 77.9727C59.125 77.9033 56.6685 77.6143 55.6165 77.0074C54.5646 76.4005 53.397 75.3486 53.2409 74.077C53.1926 73.7795 53.2075 73.4752 53.2847 73.1839C53.3619 72.8927 53.4995 72.6209 53.6888 72.3864C53.878 72.1519 54.1146 71.9599 54.383 71.8229C54.6514 71.686 54.9457 71.6071 55.2466 71.5916C57.0557 71.5511 58.9863 74.1868 59.518 75.7185C59.5527 75.8109 59.8128 76.9496 59.9457 77.5796C60.1249 77.0016 60.2983 76.3947 60.5237 75.7994C61.1017 74.0654 61.7549 72.3718 62.3907 70.6552C62.5872 70.1292 62.7722 69.6032 62.9687 69.0773C62.7201 69.0773 59.7897 68.7709 58.6106 68.0947C57.5644 67.5166 56.3968 66.4358 56.235 65.1642C56.1876 64.8669 56.2032 64.5629 56.2807 64.272C56.3582 63.9811 56.496 63.7097 56.6851 63.4754C56.8741 63.2411 57.1103 63.0492 57.3783 62.9119C57.6462 62.7747 57.94 62.6953 58.2406 62.6788C60.0556 62.6383 61.9861 65.274 62.5178 66.8057C62.5583 66.9213 62.9282 68.5397 63.0034 68.979C63.4195 67.823 63.8299 66.667 64.1594 65.511C64.6482 63.9503 65.0343 62.3594 65.3154 60.7483C65.1998 60.7483 62.1421 60.4593 60.9341 59.7657C59.8822 59.1877 58.7146 58.1068 58.5585 56.8352C58.5102 56.5381 58.5251 56.2341 58.6023 55.9431C58.6795 55.6521 58.8173 55.3807 59.0066 55.1467C59.1959 54.9126 59.4325 54.7212 59.7009 54.5848C59.9694 54.4485 60.2635 54.3704 60.5642 54.3556C62.3733 54.3094 64.3039 56.945 64.8356 58.4767C64.8703 58.575 65.1593 59.8235 65.2807 60.4246H65.3789C65.6177 58.7965 65.7105 57.1504 65.6564 55.5058C65.6564 54.5984 65.5697 53.7371 65.483 52.899C64.905 52.899 62.2809 52.899 61.1249 52.3962C59.9689 51.8933 58.7377 50.9916 58.4372 49.7489C58.357 49.4578 58.3392 49.1531 58.3849 48.8546C58.4307 48.5562 58.539 48.2707 58.7027 48.017C58.8663 47.7633 59.0818 47.547 59.3348 47.3823C59.5879 47.2176 59.8729 47.1082 60.1712 47.0612C61.9687 46.8127 64.1767 49.2287 64.8761 50.6853C64.9108 50.7662 65.2113 51.6159 65.4136 52.2401C65.3732 51.8586 65.3327 51.4656 65.2807 51.0841C65.1015 49.7258 64.8472 48.4947 64.616 47.4023C64.4773 46.7838 64.3443 46.2463 64.2114 45.7087C63.6334 45.4197 61.3676 44.229 60.5931 43.2696C59.8186 42.3101 59.125 40.9171 59.4371 39.6802C59.5062 39.3881 59.6358 39.1137 59.8176 38.8749C59.9994 38.6361 60.2293 38.438 60.4925 38.2937C60.7556 38.1493 61.0461 38.0618 61.3452 38.0368C61.6443 38.0117 61.9454 38.0498 62.2288 38.1485Z" fill="#BDB0C5"/>
<path d="M94.9885 66.0601C93.5724 66.0023 90.7402 64.5516 90.7402 64.5516C90.7402 64.5516 92.2604 62.9736 92.3702 62.8869C93.636 61.8812 96.6763 60.6732 98.1849 61.6789C98.4315 61.8517 98.6388 62.0746 98.7933 62.333C98.9478 62.5914 99.046 62.8796 99.0815 63.1786C99.117 63.4776 99.0889 63.7807 98.9991 64.0681C98.9094 64.3555 98.7599 64.6207 98.5606 64.8463C97.7514 65.8347 96.1965 66.1122 94.9885 66.0601Z" fill="#BDB0C5"/>
<g opacity="0.5">
<path opacity="0.5" d="M65.7383 52.6447C65.7036 52.6447 66.1429 50.4888 66.1833 50.3327C66.6804 48.7894 68.5531 46.1075 70.3623 46.1133C70.6636 46.1218 70.9598 46.1937 71.2315 46.3244C71.5032 46.4552 71.7442 46.6417 71.939 46.8718C72.1337 47.102 72.2777 47.3707 72.3615 47.6602C72.4454 47.9498 72.4673 48.2538 72.4257 48.5525C72.2928 49.8241 71.1484 50.9107 70.1137 51.5349C68.8999 52.2921 65.7383 52.6447 65.7383 52.6447Z" fill="white"/>
<path opacity="0.5" d="M62.2288 38.1485C63.9628 38.7612 64.7836 41.917 64.7258 43.5354C64.7258 43.6742 64.4021 45.8474 64.3732 45.8474H64.3385C64.4715 46.3445 64.616 46.8821 64.7605 47.4716C65.0148 48.5583 65.2922 49.7836 65.5061 51.1477C65.7541 52.6089 65.9162 54.0834 65.9916 55.5636C66.0838 57.2222 66.0277 58.8858 65.824 60.5344C65.8213 60.5536 65.8213 60.573 65.824 60.5922C66.0494 60.1125 66.7199 58.7831 66.7777 58.6906C67.6678 57.3381 70.1763 55.2226 71.9277 55.7255C72.2152 55.8132 72.4811 55.9605 72.7078 56.1579C72.9346 56.3552 73.1172 56.5982 73.2438 56.8709C73.3703 57.1436 73.4379 57.4399 73.4422 57.7405C73.4465 58.0411 73.3873 58.3393 73.2686 58.6155C72.8062 59.8061 71.419 60.5518 70.2573 60.8812C68.9452 61.2569 66.0205 60.8176 65.7893 60.7772C65.5421 62.4505 65.183 64.1054 64.7142 65.7306C64.4445 66.6786 64.1517 67.6245 63.8357 68.5686C64.038 68.1582 64.2287 67.7941 64.2576 67.7479C65.1477 66.3896 67.662 64.2799 69.4076 64.7827C69.6952 64.8704 69.961 65.0178 70.1878 65.2151C70.4145 65.4125 70.5971 65.6555 70.7237 65.9282C70.8502 66.2009 70.9178 66.4972 70.9221 66.7978C70.9264 67.0984 70.8673 67.3965 70.7486 67.6727C70.2862 68.8634 68.899 69.609 67.7372 69.9385C66.5754 70.2679 64.0553 69.9385 63.3964 69.8518L63.0323 70.9384C62.4543 72.6724 61.8242 74.4064 61.2983 76.1057C61.1075 76.6837 60.9399 77.308 60.7723 77.9091C60.9572 77.5449 61.1133 77.2386 61.1422 77.1924C62.0265 75.8399 64.5408 73.7244 66.2864 74.2272C66.5734 74.3159 66.8387 74.4637 67.0651 74.6611C67.2915 74.8585 67.474 75.1012 67.6009 75.3735C67.7278 75.6457 67.7962 75.9416 67.8018 76.2419C67.8073 76.5423 67.7499 76.8404 67.6331 77.1172C67.1707 78.3137 65.7778 79.0535 64.616 79.3888C63.4542 79.724 61.1827 79.4292 60.3966 79.3194C60.2405 79.9379 60.0902 80.5563 59.9689 81.1632C59.8937 81.5852 59.7955 81.9782 59.7434 82.4001L59.57 83.6429C59.4891 84.4347 59.3966 85.2497 59.3388 86.0242C59.2926 86.5617 59.2579 87.0762 59.2232 87.5964C59.4082 87.0184 59.8012 85.8219 59.8012 85.7294C60.4413 84.4578 61.3965 83.3713 62.5756 82.5735C62.6385 82.4262 62.718 82.2866 62.8126 82.1574C62.9763 81.9049 63.1913 81.6897 63.4438 81.526C63.6963 81.3623 63.9805 81.2537 64.2778 81.2073C64.5751 81.1609 64.8789 81.1778 65.1692 81.2569C65.4596 81.3359 65.73 81.4754 65.9627 81.6661C67.3384 82.851 66.9916 86.0993 66.3615 87.5906C66.3269 87.6773 65.8124 88.5847 65.483 89.157C65.7315 88.8506 65.9627 88.5501 66.2228 88.2437C66.7257 87.6253 67.2459 87.0241 67.8008 86.3768L68.6504 85.4578C68.9279 85.1456 69.2631 84.8798 69.5694 84.5387C70.2919 83.8394 71.0607 83.1631 71.8525 82.4984C71.315 82.0591 69.4192 80.4638 68.8758 79.3772C68.3325 78.2906 67.9453 76.7704 68.5117 75.6202C68.6363 75.3459 68.8171 75.1008 69.0425 74.9009C69.2678 74.701 69.5327 74.5506 69.8199 74.4596C70.1071 74.3686 70.4102 74.339 70.7096 74.3726C71.009 74.4063 71.2979 74.5025 71.5578 74.655C73.0895 75.6202 73.2455 78.8859 72.8467 80.4349C72.8467 80.5332 72.4074 81.6256 72.1704 82.221C72.6502 81.8279 73.1241 81.4349 73.6212 81.065C75.0547 79.961 76.5401 78.8801 78.014 77.7993L79.3608 76.8051C79.17 76.6491 76.8811 74.7995 76.2685 73.5799C75.7309 72.499 75.3379 70.9731 75.9043 69.8286C76.0282 69.5537 76.2087 69.308 76.4339 69.1076C76.6592 68.9071 76.9242 68.7564 77.2116 68.6653C77.4991 68.5742 77.8025 68.5448 78.1021 68.5789C78.4017 68.613 78.6908 68.71 78.9504 68.8634C80.4879 69.8229 80.6381 73.0886 80.2393 74.6434C80.2104 74.759 79.6151 76.3312 79.4475 76.7242C80.4301 75.9901 81.4069 75.2503 82.3375 74.4758C83.6036 73.4436 84.8007 72.3295 85.9211 71.1407C85.8344 71.0656 83.4357 69.1466 82.8114 67.9039C82.2681 66.8231 81.8808 65.2914 82.4473 64.1469C82.5712 63.8728 82.7515 63.6278 82.9763 63.4279C83.2012 63.228 83.4655 63.0777 83.7523 62.9866C84.039 62.8956 84.3417 62.8659 84.6407 62.8995C84.9396 62.9331 85.2282 63.0292 85.4876 63.1817C87.025 64.1469 87.1811 67.4126 86.7823 68.9616C86.7823 69.0657 86.3025 70.2621 86.0771 70.8286L86.1638 70.8864C87.2588 69.6576 88.2433 68.3346 89.1058 66.9329C89.5914 66.1641 90.0075 65.407 90.4006 64.6613C89.915 64.3492 87.7244 62.8984 87.0366 61.8407C86.3488 60.783 85.8286 59.3495 86.2621 58.1473C86.355 57.8607 86.5072 57.5969 86.7089 57.3731C86.9106 57.1493 87.1571 56.9704 87.4325 56.8483C87.7079 56.7261 88.0059 56.6634 88.3072 56.6641C88.6085 56.6649 88.9062 56.7291 89.181 56.8526C90.8167 57.6444 91.3254 60.8986 91.0999 62.4765C91.0999 62.5632 90.8687 63.436 90.7011 64.066C90.8687 63.725 91.0537 63.3782 91.2098 63.0487C91.7878 61.8176 92.2791 60.65 92.6837 59.5807C92.9149 59.0027 93.1056 58.4536 93.2617 57.945C92.9438 57.367 91.7068 55.1475 91.5855 53.899C91.4641 52.6505 91.6606 51.1361 92.6027 50.2691C92.8173 50.058 93.0738 49.8944 93.3557 49.789C93.6376 49.6836 93.9386 49.6387 94.239 49.6572C94.5394 49.6757 94.8325 49.7573 95.0993 49.8966C95.3661 50.0359 95.6006 50.2298 95.7875 50.4656C96.8742 51.9164 95.8395 55.0203 94.9032 56.3381C94.8223 56.4537 93.3484 58.0721 93.331 58.0721V58.0375C93.1692 58.5288 92.9958 59.0547 92.7877 59.6212C92.4062 60.6731 91.9612 61.8523 91.3889 63.0892C90.784 64.4426 90.1028 65.7606 89.3486 67.0369C88.5069 68.4685 87.5398 69.8225 86.4586 71.0829L86.4181 71.1292C86.869 70.8517 88.1521 70.1119 88.262 70.0656C89.7532 69.4298 93.0016 69.0715 94.1922 70.4356C94.3839 70.6677 94.5245 70.9376 94.605 71.2277C94.6854 71.5177 94.7039 71.8215 94.6592 72.1192C94.6145 72.4169 94.5076 72.7018 94.3455 72.9555C94.1834 73.2091 93.9697 73.4258 93.7183 73.5914C92.6721 74.3313 91.1057 74.1694 89.9497 73.8226C88.6492 73.4065 86.4817 71.4297 86.2852 71.2679C85.1563 72.5274 83.9436 73.7092 82.6554 74.8052C81.9097 75.4468 81.1352 76.071 80.3434 76.6895C80.7422 76.4583 81.1005 76.256 81.1526 76.2329C82.638 75.5971 85.8864 75.2387 87.0771 76.6028C87.2696 76.8346 87.4109 77.1044 87.4919 77.3946C87.5729 77.6849 87.5916 77.9889 87.5468 78.2869C87.5021 78.5849 87.3949 78.87 87.2322 79.1236C87.0696 79.3773 86.8552 79.5937 86.6031 79.7587C85.5627 80.4985 83.9905 80.3367 82.8403 79.9899C81.6901 79.6431 79.7654 77.9669 79.2683 77.5218C78.9619 77.753 78.6903 77.99 78.3608 78.227C76.91 79.3367 75.4708 80.4407 74.0547 81.5736C73.5634 81.9667 73.0952 82.377 72.6213 82.7874L73.3264 82.3944C74.8119 81.7586 78.0603 81.3944 79.2509 82.7585C79.4427 82.9911 79.5834 83.2615 79.6639 83.552C79.7444 83.8425 79.7629 84.1468 79.7182 84.4449C79.6735 84.743 79.5666 85.0285 79.4045 85.2826C79.2423 85.5368 79.0285 85.754 78.777 85.9202C77.7366 86.66 76.1644 86.4982 75.0142 86.1456C73.864 85.793 72.1242 84.2844 71.5462 83.7584C71.078 84.1919 70.6041 84.6254 70.1706 85.0647C69.8758 85.3711 69.5926 85.6427 69.3036 85.9722L68.4712 86.9085C67.9684 87.527 67.4424 88.157 66.9627 88.7697C66.6274 89.1916 66.3153 89.602 66.0032 90.0182C66.4829 89.6136 67.454 88.8622 67.5407 88.7928C68.9105 87.9374 72.0722 87.0588 73.4536 88.2611C73.6775 88.4622 73.8565 88.7081 73.9791 88.983C74.1017 89.2578 74.165 89.5554 74.165 89.8563C74.165 90.1573 74.1017 90.4549 73.9791 90.7297C73.8565 91.0046 73.6775 91.2505 73.4536 91.4516C72.5288 92.3417 70.9566 92.4342 69.766 92.2493C68.4481 92.0412 66.0668 90.5153 65.772 90.2956C65.2518 90.9834 64.7547 91.6481 64.2923 92.2897C62.6912 94.5035 61.4428 96.4109 60.5873 97.7518L60.5006 97.8905L59.3909 97.353L59.5643 97.0871C60.4602 95.7462 61.7664 93.8503 63.4311 91.6539C63.9571 90.9546 64.5293 90.2205 65.1246 89.4749C64.5055 88.7984 63.9265 88.0862 63.3906 87.342C62.1132 87.8449 59.466 87.8622 59.1192 87.8622C59.0672 88.7177 59.0209 89.5558 58.9863 90.3419C58.8707 93.07 58.8822 95.3473 58.9111 96.9426V97.1276L57.6915 96.5496C57.6915 94.9659 57.7551 92.8273 57.917 90.2956C57.969 89.4286 58.0441 88.4981 58.1308 87.5443C57.7898 87.4576 55.0327 86.7525 53.9923 85.9202C53.0502 85.163 52.056 83.9434 52.0907 82.6602C52.0884 82.3592 52.1495 82.0611 52.27 81.7852C52.3906 81.5094 52.5678 81.262 52.7903 81.0592C53.0127 80.8563 53.2754 80.7026 53.5612 80.608C53.8469 80.5134 54.1494 80.4801 54.449 80.5101C56.2465 80.7413 57.7551 83.6429 58.0499 85.2323C58.0499 85.3306 58.1424 86.3883 58.1771 87.0241C58.2175 86.6369 58.2464 86.2554 58.2927 85.8681C58.3678 85.0763 58.4718 84.2902 58.5817 83.4405C58.6452 83.0302 58.7146 82.6198 58.7782 82.2036C58.8418 81.7875 58.9516 81.3597 59.0383 80.932C59.2579 79.9494 59.5238 78.961 59.8186 77.9727C59.125 77.9033 56.6685 77.6143 55.6165 77.0074C54.5646 76.4005 53.397 75.3486 53.2409 74.077C53.1926 73.7795 53.2075 73.4752 53.2847 73.1839C53.3619 72.8927 53.4995 72.6209 53.6888 72.3864C53.878 72.1519 54.1146 71.9599 54.383 71.8229C54.6514 71.686 54.9457 71.6071 55.2466 71.5916C57.0557 71.5511 58.9863 74.1868 59.518 75.7185C59.5527 75.8109 59.8128 76.9496 59.9457 77.5796C60.1249 77.0016 60.2983 76.3947 60.5237 75.7994C61.1017 74.0654 61.7549 72.3718 62.3907 70.6552C62.5872 70.1292 62.7722 69.6032 62.9687 69.0773C62.7201 69.0773 59.7897 68.7709 58.6106 68.0947C57.5644 67.5166 56.3968 66.4358 56.235 65.1642C56.1876 64.8669 56.2032 64.5629 56.2807 64.272C56.3582 63.9811 56.496 63.7097 56.6851 63.4754C56.8741 63.2411 57.1103 63.0492 57.3783 62.9119C57.6462 62.7747 57.94 62.6953 58.2406 62.6788C60.0556 62.6383 61.9861 65.274 62.5178 66.8057C62.5583 66.9213 62.9282 68.5397 63.0034 68.979C63.4195 67.823 63.8299 66.667 64.1594 65.511C64.6482 63.9503 65.0343 62.3594 65.3154 60.7483C65.1998 60.7483 62.1421 60.4593 60.9341 59.7657C59.8822 59.1877 58.7146 58.1068 58.5585 56.8352C58.5102 56.5381 58.5251 56.2341 58.6023 55.9431C58.6795 55.6521 58.8173 55.3807 59.0066 55.1467C59.1959 54.9126 59.4325 54.7212 59.7009 54.5848C59.9694 54.4485 60.2635 54.3704 60.5642 54.3556C62.3733 54.3094 64.3039 56.945 64.8356 58.4767C64.8703 58.575 65.1593 59.8235 65.2807 60.4246H65.3789C65.6177 58.7965 65.7105 57.1504 65.6564 55.5058C65.6564 54.5984 65.5697 53.7371 65.483 52.899C64.905 52.899 62.2809 52.899 61.1249 52.3962C59.9689 51.8933 58.7377 50.9916 58.4372 49.7489C58.357 49.4578 58.3392 49.1531 58.3849 48.8546C58.4307 48.5562 58.539 48.2707 58.7027 48.017C58.8663 47.7633 59.0818 47.547 59.3348 47.3823C59.5879 47.2176 59.8729 47.1082 60.1712 47.0612C61.9687 46.8127 64.1767 49.2287 64.8761 50.6853C64.9108 50.7662 65.2113 51.6159 65.4136 52.2401C65.3732 51.8586 65.3327 51.4656 65.2807 51.0841C65.1015 49.7258 64.8472 48.4947 64.616 47.4023C64.4773 46.7838 64.3443 46.2463 64.2114 45.7087C63.6334 45.4197 61.3676 44.229 60.5931 43.2696C59.8186 42.3101 59.125 40.9171 59.4371 39.6802C59.5062 39.3881 59.6358 39.1137 59.8176 38.8749C59.9994 38.6361 60.2293 38.438 60.4925 38.2937C60.7556 38.1493 61.0461 38.0618 61.3452 38.0368C61.6443 38.0117 61.9454 38.0498 62.2288 38.1485Z" fill="white"/>
<path opacity="0.5" d="M94.9905 66.0601C93.5744 66.0023 90.7422 64.5516 90.7422 64.5516C90.7422 64.5516 92.2623 62.9736 92.3721 62.8869C93.638 61.8812 96.6782 60.6732 98.1868 61.6789C98.4334 61.8517 98.6408 62.0746 98.7953 62.333C98.9498 62.5914 99.048 62.8796 99.0835 63.1786C99.1189 63.4776 99.0909 63.7807 99.0011 64.0681C98.9113 64.3555 98.7619 64.6207 98.5625 64.8463C97.7533 65.8347 96.1985 66.1122 94.9905 66.0601Z" fill="white"/>
</g>
<path d="M78.4524 101.526C78.4524 101.526 69.8575 80.8105 65.0486 81.7122C60.2396 82.6139 73.2966 114.739 73.2966 114.739C73.2966 114.739 58.1762 86.2148 47.8646 86.2148C37.5531 86.2148 51.6448 117.739 64.7365 128.247C64.7365 128.247 44.1134 106.029 32.0852 110.832C20.0571 115.635 56.1127 138.142 56.1127 138.142C56.1127 138.142 35.1486 131.547 37.5705 136.657C39.9923 141.766 46.5063 142.657 46.5063 142.657L52.0205 143.859H82.0765L86.7005 142.061C86.7005 142.061 105.948 132.449 100.792 128.548C95.6363 124.646 84.296 133.05 84.296 133.05C84.296 133.05 103.884 111.433 100.104 103.329C96.3242 95.2258 79.4812 118.04 79.4812 118.04C79.4812 118.04 93.2318 88.9141 90.4632 83.8103C87.6946 78.7066 78.4524 101.526 78.4524 101.526Z" fill="#BDB0C5"/>
<path opacity="0.4" d="M78.4524 101.526C78.4524 101.526 69.8575 80.8105 65.0486 81.7122C60.2396 82.6139 73.2966 114.739 73.2966 114.739C73.2966 114.739 58.1762 86.2148 47.8646 86.2148C37.5531 86.2148 51.6448 117.739 64.7365 128.247C64.7365 128.247 44.1134 106.029 32.0852 110.832C20.0571 115.635 56.1127 138.142 56.1127 138.142C56.1127 138.142 35.1486 131.547 37.5705 136.657C39.9923 141.766 46.5063 142.657 46.5063 142.657L55.4885 143.859H79.7645L86.7005 142.061C86.7005 142.061 105.948 132.449 100.792 128.548C95.6363 124.646 84.296 133.05 84.296 133.05C84.296 133.05 103.884 111.433 100.104 103.329C96.3242 95.2258 79.4812 118.04 79.4812 118.04C79.4812 118.04 93.2318 88.9141 90.4632 83.8103C87.6946 78.7066 78.4524 101.526 78.4524 101.526Z" fill="white"/>
<path d="M81.2028 102.618C73.6426 124.958 73.6426 140.766 73.6426 140.766C73.6426 140.766 82.5785 141.113 91.8553 134.235" stroke="#263238" stroke-linecap="round" stroke-linejoin="round"/>
<path d="M77.4521 114.647C75.8921 107.969 73.8226 101.42 71.2617 95.0586" stroke="#263238" stroke-linecap="round" stroke-linejoin="round"/>
<path d="M55.084 101.584L74.3256 130.114C74.3256 130.114 87.3884 119.132 91.8563 112.93" stroke="#263238" stroke-linecap="round" stroke-linejoin="round"/>
<path d="M73.9852 136.987C73.9852 136.987 53.709 127.363 45.4609 121.866" stroke="#263238" stroke-linecap="round" stroke-linejoin="round"/>
<path d="M135.027 55.2744H130.848V229.42H135.027V55.2744Z" fill="#C2C2C2" stroke="#ABABAB" stroke-linecap="round" stroke-linejoin="round"/>
<path d="M59.8528 55.2744H55.6738V229.42H59.8528V55.2744Z" fill="#C2C2C2" stroke="#ABABAB" stroke-linecap="round" stroke-linejoin="round"/>
<path d="M97.4387 55.2744H93.2598V229.42H97.4387V55.2744Z" fill="#C2C2C2" stroke="#ABABAB" stroke-linecap="round" stroke-linejoin="round"/>
<path d="M172.609 55.2744H168.43V229.42H172.609V55.2744Z" fill="#C2C2C2" stroke="#ABABAB" stroke-linecap="round" stroke-linejoin="round"/>
<path d="M171.354 60.7021H54.3262V68.6381H171.354V60.7021Z" fill="#C2C2C2" stroke="#ABABAB" stroke-linecap="round" stroke-linejoin="round"/>
<path d="M171.354 60.7021H96.041V68.6381H171.354V60.7021Z" fill="#A6A6A6" stroke="#ABABAB" stroke-linecap="round" stroke-linejoin="round"/>
<path d="M171.354 140.61H54.3262V148.546H171.354V140.61Z" fill="#C2C2C2" stroke="#ABABAB" stroke-linecap="round" stroke-linejoin="round"/>
<path d="M171.354 140.61H96.041V148.546H171.354V140.61Z" fill="#A6A6A6" stroke="#ABABAB" stroke-linecap="round" stroke-linejoin="round"/>
<path d="M171.354 220.513H54.3262V228.449H171.354V220.513Z" fill="#C2C2C2" stroke="#ABABAB" stroke-linecap="round" stroke-linejoin="round"/>
<path d="M171.354 220.513H96.041V228.449H171.354V220.513Z" fill="#A6A6A6" stroke="#ABABAB" stroke-linecap="round" stroke-linejoin="round"/>
<path d="M96.0574 177.908H34.8125V229.356H96.0574V177.908Z" fill="#BDB0C5"/>
<path opacity="0.6" d="M96.0574 177.908H34.8125V229.356H96.0574V177.908Z" fill="white" stroke="#696969" stroke-linecap="round" stroke-linejoin="round"/>
<path d="M96.0574 177.908H34.8125V229.356H96.0574V177.908Z" stroke="#696969" stroke-linecap="round" stroke-linejoin="round"/>
<path d="M96.0565 177.908H75.7051V229.356H96.0565V177.908Z" fill="#BDB0C5"/>
<path opacity="0.39" d="M96.0565 177.908H75.7051V229.356H96.0565V177.908Z" fill="white" stroke="#696969" stroke-linecap="round" stroke-linejoin="round"/>
<path d="M96.0565 177.908H75.7051V229.356H96.0565V177.908Z" stroke="#696969" stroke-linecap="round" stroke-linejoin="round"/>
<path d="M86.0918 178.047V229.42" stroke="#696969" stroke-linecap="round" stroke-linejoin="round"/>
<path d="M99.1492 126.541H37.9043V177.989H99.1492V126.541Z" fill="#BDB0C5"/>
<path opacity="0.6" d="M99.1492 126.541H37.9043V177.989H99.1492V126.541Z" fill="white" stroke="#696969" stroke-linecap="round" stroke-linejoin="round"/>
<path d="M99.1492 126.541H37.9043V177.989H99.1492V126.541Z" stroke="#696969" stroke-linecap="round" stroke-linejoin="round"/>
<path d="M99.1502 126.541H78.7988V177.989H99.1502V126.541Z" fill="#BDB0C5"/>
<path opacity="0.39" d="M99.1502 126.541H78.7988V177.989H99.1502V126.541Z" fill="white" stroke="#696969" stroke-linecap="round" stroke-linejoin="round"/>
<path d="M99.1502 126.541H78.7988V177.989H99.1502V126.541Z" stroke="#696969" stroke-linecap="round" stroke-linejoin="round"/>
<path d="M89.1855 126.68V178.052" stroke="#696969" stroke-linecap="round" stroke-linejoin="round"/>
<path d="M258.528 177.908H197.283V229.356H258.528V177.908Z" fill="#BDB0C5"/>
<path opacity="0.6" d="M258.528 177.908H197.283V229.356H258.528V177.908Z" fill="white" stroke="#919191" stroke-linecap="round" stroke-linejoin="round"/>
<path d="M258.528 177.908H197.283V229.356H258.528V177.908Z" stroke="#919191" stroke-linecap="round" stroke-linejoin="round"/>
<path d="M258.527 177.908H238.176V229.356H258.527V177.908Z" fill="#BDB0C5"/>
<path opacity="0.39" d="M258.527 177.908H238.176V229.356H258.527V177.908Z" fill="white" stroke="#919191" stroke-linecap="round" stroke-linejoin="round"/>
<path d="M258.527 177.908H238.176V229.356H258.527V177.908Z" stroke="#919191" stroke-linecap="round" stroke-linejoin="round"/>
<path d="M248.562 178.047V229.42" stroke="#919191" stroke-linecap="round" stroke-linejoin="round"/>
<path d="M258.528 126.408H197.283V177.856H258.528V126.408Z" fill="#BDB0C5"/>
<path opacity="0.6" d="M258.528 126.408H197.283V177.856H258.528V126.408Z" fill="white" stroke="#919191" stroke-linecap="round" stroke-linejoin="round"/>
<path d="M258.528 126.408H197.283V177.856H258.528V126.408Z" stroke="#919191" stroke-linecap="round" stroke-linejoin="round"/>
<path d="M258.527 126.408H238.176V177.856H258.527V126.408Z" fill="#BDB0C5"/>
<path opacity="0.39" d="M258.527 126.408H238.176V177.856H258.527V126.408Z" fill="white" stroke="#919191" stroke-linecap="round" stroke-linejoin="round"/>
<path d="M258.527 126.408H238.176V177.856H258.527V126.408Z" stroke="#919191" stroke-linecap="round" stroke-linejoin="round"/>
<path d="M248.562 126.547V177.92" stroke="#919191" stroke-linecap="round" stroke-linejoin="round"/>
<path d="M253.146 83.8096H202.484V126.368H253.146V83.8096Z" fill="#BDB0C5"/>
<path opacity="0.6" d="M253.146 83.8096H202.484V126.368H253.146V83.8096Z" fill="white" stroke="#919191" stroke-linecap="round" stroke-linejoin="round"/>
<path d="M253.146 83.8096H202.484V126.368H253.146V83.8096Z" stroke="#919191" stroke-linecap="round" stroke-linejoin="round"/>
<path d="M253.146 83.8096H236.314V126.368H253.146V83.8096Z" fill="#BDB0C5"/>
<path opacity="0.39" d="M253.146 83.8096H236.314V126.368H253.146V83.8096Z" fill="white" stroke="#919191" stroke-linecap="round" stroke-linejoin="round"/>
<path d="M253.146 83.8096H236.314V126.368H253.146V83.8096Z" stroke="#919191" stroke-linecap="round" stroke-linejoin="round"/>
<path d="M244.904 83.9248V126.419" stroke="#919191" stroke-linecap="round" stroke-linejoin="round"/>
<path d="M246.668 210.016H238.732V214.981H246.668V210.016Z" fill="white" stroke="#263238" stroke-linecap="round" stroke-linejoin="round"/>
<path d="M171.991 229.419C174.64 229.419 176.788 227.271 176.788 224.622C176.788 221.972 174.64 219.824 171.991 219.824C169.341 219.824 167.193 221.972 167.193 224.622C167.193 227.271 169.341 229.419 171.991 229.419Z" fill="#263238" stroke="#263238" stroke-linecap="round" stroke-linejoin="round"/>
<path d="M250.934 145.217H248.102V224.732H250.934V145.217Z" fill="#263238" stroke="#263238" stroke-linecap="round" stroke-linejoin="round"/>
<path d="M249.425 173.03L242.726 167.701C239.877 165.43 237.739 162.389 236.568 158.939C235.397 155.489 235.241 151.775 236.119 148.239C236.378 147.207 236.973 146.291 237.81 145.634C238.647 144.978 239.68 144.619 240.743 144.615H258.083C259.148 144.617 260.181 144.975 261.019 145.632C261.857 146.288 262.451 147.206 262.707 148.239C263.587 151.775 263.432 155.488 262.262 158.938C261.092 162.388 258.955 165.43 256.107 167.701L249.425 173.03ZM240.755 147.326C240.292 147.324 239.842 147.479 239.477 147.764C239.112 148.049 238.854 148.448 238.744 148.898C237.988 151.929 238.12 155.112 239.123 158.07C240.127 161.027 241.959 163.634 244.402 165.579L249.413 169.567L254.43 165.579C256.875 163.634 258.708 161.028 259.714 158.071C260.719 155.114 260.853 151.93 260.101 148.898C259.989 148.449 259.731 148.05 259.366 147.765C259.002 147.48 258.552 147.325 258.089 147.326H240.755Z" fill="#263238"/>
<path d="M232.796 212.501H145.096V222.708H232.796V212.501Z" fill="white"/>
<path opacity="0.28" d="M232.796 212.501H145.096V222.708H232.796V212.501Z" fill="black" stroke="#263238" stroke-linecap="round" stroke-linejoin="round"/>
<path d="M232.796 212.501H145.096V222.708H232.796V212.501Z" stroke="#263238" stroke-linecap="round" stroke-linejoin="round"/>
<path d="M154.922 212.501H145.096V222.708H154.922V212.501Z" stroke="#263238" stroke-linecap="round" stroke-linejoin="round"/>
<path d="M232.789 212.501H222.963V222.708H232.789V212.501Z" stroke="#263238" stroke-linecap="round" stroke-linejoin="round"/>
<path d="M193.855 212.501H184.029V222.708H193.855V212.501Z" stroke="#263238" stroke-linecap="round" stroke-linejoin="round"/>
<path d="M232.795 222.709H238.841L246.401 193.977H240.355L232.795 222.709Z" fill="white" stroke="#263238" stroke-linecap="round" stroke-linejoin="round"/>
<path d="M253.489 206.074H245.553V218.929H253.489V206.074Z" fill="white" stroke="#263238" stroke-linecap="round" stroke-linejoin="round"/>
<path d="M247.574 229.419C247.124 229.412 246.695 229.23 246.377 228.911C246.059 228.593 245.877 228.164 245.869 227.714V221.315C245.877 220.866 246.059 220.436 246.377 220.118C246.695 219.8 247.124 219.618 247.574 219.61C248.024 219.618 248.454 219.8 248.772 220.118C249.09 220.436 249.272 220.866 249.279 221.315V227.731C249.267 228.178 249.084 228.603 248.766 228.918C248.448 229.232 248.021 229.412 247.574 229.419Z" fill="#263238"/>
<path d="M251.627 229.419C251.177 229.412 250.748 229.23 250.43 228.911C250.111 228.593 249.929 228.164 249.922 227.714V221.315C249.929 220.866 250.111 220.436 250.43 220.118C250.748 219.8 251.177 219.618 251.627 219.61C252.082 219.61 252.519 219.789 252.843 220.108C253.167 220.427 253.353 220.861 253.361 221.315V227.731C253.349 228.183 253.161 228.612 252.837 228.928C252.513 229.243 252.079 229.419 251.627 229.419Z" fill="#263238"/>
<path d="M27.0625 229.42H266.245" stroke="#263238" stroke-linecap="round" stroke-linejoin="round"/>
<path d="M109.583 246.118C132.643 246.118 151.338 243.846 151.338 241.044C151.338 238.241 132.643 235.969 109.583 235.969C86.5224 235.969 67.8281 238.241 67.8281 241.044C67.8281 243.846 86.5224 246.118 109.583 246.118Z" fill="#BDB0C5"/>
<path opacity="0.5" d="M109.583 246.118C132.643 246.118 151.338 243.846 151.338 241.044C151.338 238.241 132.643 235.969 109.583 235.969C86.5224 235.969 67.8281 238.241 67.8281 241.044C67.8281 243.846 86.5224 246.118 109.583 246.118Z" fill="white"/>
<path d="M195.987 241.026C195.987 242.425 186.664 243.558 175.179 243.558C163.694 243.558 154.371 242.402 154.371 241.026C154.371 239.65 163.688 238.5 175.179 238.5C186.67 238.5 195.987 239.65 195.987 241.026Z" fill="#BDB0C5"/>
<path opacity="0.5" d="M195.987 241.026C195.987 242.425 186.664 243.558 175.179 243.558C163.694 243.558 154.371 242.402 154.371 241.026C154.371 239.65 163.688 238.5 175.179 238.5C186.67 238.5 195.987 239.65 195.987 241.026Z" fill="white"/>
<path d="M117.912 73.8627C117.912 73.8627 114.681 71.3253 110.976 72.5911C107.271 73.857 104.462 80.03 103.462 85.047C102.462 90.0641 98.618 93.8673 99.5428 99.7514C100.468 105.635 107.155 106.554 115.23 107.421C123.304 108.288 127.686 107.306 131.489 102C135.292 96.6937 133.679 90.2375 131.431 84.5268C129.183 78.8162 125.437 73.5159 122.322 72.5333C119.206 71.5507 117.912 73.8627 117.912 73.8627Z" fill="#263238" stroke="#263238" stroke-linecap="round" stroke-linejoin="round"/>
<path d="M104.561 104.04C105.106 104.285 105.673 104.479 106.254 104.618" stroke="white" stroke-linecap="round" stroke-linejoin="round"/>
<path d="M117.102 77.9727C115.785 80.9149 114.116 83.6864 112.131 86.2265C108.825 90.4748 101.513 94.4861 101.045 98.9425C100.97 99.5391 101.022 100.145 101.199 100.72C101.375 101.295 101.671 101.826 102.068 102.278" stroke="white" stroke-linecap="round" stroke-linejoin="round"/>
<path d="M130.519 99.2832C130.28 99.8427 129.973 100.371 129.605 100.855" stroke="white" stroke-linecap="round" stroke-linejoin="round"/>
<path d="M127.738 88.1162C127.738 88.1162 131.455 92.405 131.096 96.9827" stroke="white" stroke-linecap="round" stroke-linejoin="round"/>
<path d="M116.398 75.6084C114.949 75.4609 113.486 75.6627 112.132 76.1966C110.777 76.7306 109.57 77.5813 108.612 78.6775C108.479 78.8278 108.358 78.9781 108.242 79.1284" stroke="white" stroke-linecap="round" stroke-linejoin="round"/>
<path d="M95.0742 184.556L94.3517 195.676C94.3517 195.676 91.2767 210.595 90.3057 216.745C89.3346 222.894 87.5544 232.247 87.2307 232.247C86.907 232.247 81.601 235.454 79.9017 238.073C78.2024 240.691 80.3583 241.801 82.7165 240.963C85.0748 240.125 88.2769 237.755 89.3231 234.94C90.3692 232.125 90.8894 231.079 90.9588 230.622C91.0282 230.166 102.212 200.139 103.322 196.931C104.432 193.723 106.79 184.301 106.79 184.301L112.287 165.655C112.287 165.655 118.171 184.827 118.24 185.677C118.31 186.527 124.321 235.53 124.598 237.362C124.876 239.194 124.795 240.5 125.905 240.893C127.014 241.286 129.633 241.286 131.008 241.286C132.384 241.286 137.158 242.009 139.511 241.419C141.863 240.83 142.129 240.437 140.493 239.258C138.858 238.079 129.772 237.327 128.933 233.894C128.864 233.634 128.8 183.192 128.8 183.192C128.8 183.192 128.014 166.511 126.708 161.806H96.4787L95.0742 184.556Z" fill="white" stroke="#263238" stroke-linecap="round" stroke-linejoin="round"/>
<path d="M82.7111 240.951C85.0636 240.096 88.2715 237.743 89.3176 234.928L89.5373 234.35C88.2021 235.772 86.0693 237.749 86.0693 237.749C85.9386 237.079 85.647 236.45 85.2196 235.917C85.0332 235.711 84.7943 235.56 84.5286 235.48C84.2628 235.399 83.9803 235.392 83.711 235.46L86.023 232.917C84.289 233.992 81.1678 236.188 79.9425 238.079C78.1911 240.685 80.3413 241.801 82.7111 240.951Z" fill="#263238" stroke="#263238" stroke-linecap="round" stroke-linejoin="round"/>
<path d="M140.453 239.246C139.332 238.442 134.725 237.835 131.65 236.431C131.524 236.539 131.425 236.675 131.361 236.829C131.166 237.384 131.014 237.952 130.905 238.529L124.547 237.171V237.35C124.807 239.182 124.743 240.488 125.853 240.881C126.963 241.274 129.581 241.274 130.957 241.274C132.333 241.274 137.107 241.997 139.459 241.407C141.812 240.818 142.112 240.448 140.453 239.246Z" fill="#263238" stroke="#263238" stroke-linecap="round" stroke-linejoin="round"/>
<path d="M103.883 134.674C103.883 134.674 100.883 136.055 97.2536 142.575C93.2827 149.69 93.9648 153.644 93.907 162.227C93.8492 170.81 93.6758 185.058 93.6758 185.058C93.6758 185.058 104.658 188 112.536 187.538C120.414 187.075 130.408 185.289 130.408 185.289C130.408 185.289 128.275 156.227 126.258 147.87C124.24 139.512 123.027 135.732 123.027 135.732C119.128 136.273 115.177 136.331 111.264 135.905C104.577 135.252 103.883 134.674 103.883 134.674Z" fill="#263238" stroke="#263238" stroke-linecap="round" stroke-linejoin="round"/>
<path d="M116.52 160.378C116.82 161.366 117.098 162.366 117.34 163.366" stroke="white" stroke-linecap="round" stroke-linejoin="round"/>
<path d="M109.555 144.021C111.883 148.317 113.881 152.784 115.531 157.384" stroke="white" stroke-linecap="round" stroke-linejoin="round"/>
<path d="M177.515 129.149C177.169 128.918 171.487 128.028 171.487 128.028L170.377 127.571C170.377 127.571 177.255 128.12 177.313 127.831C177.371 127.542 177.602 127.195 177.14 127.137C176.677 127.08 167.828 125.282 167.828 125.282C167.828 125.282 170.077 123.155 170.366 122.693C170.655 122.23 171.053 121.305 170.591 121.305C170.129 121.305 170.013 121.594 169.383 121.999C168.753 122.404 166.268 123.386 165.574 123.958C164.88 124.531 162.811 126.033 162.811 126.033L138.778 122.727C138.778 122.727 130.339 112.323 128.507 110.104C127.233 108.623 125.783 107.303 124.189 106.173C122.42 105.393 122.455 106.699 122.455 106.699L126.149 123.115C126.149 123.115 135.703 128.808 136.292 128.808C136.882 128.808 162.696 129.663 162.696 129.663C162.696 129.663 164.429 130.472 165.516 131.16C166.603 131.848 173.533 134.05 173.533 134.05C173.533 134.05 173.995 133.819 173.475 133.414C172.955 133.01 169.614 131.397 169.614 131.397L176.55 132.9C176.55 132.9 176.955 132.611 176.781 132.322C176.608 132.033 170.423 129.669 170.423 129.669L177.359 130.016C177.359 130.016 177.856 129.38 177.515 129.149Z" fill="white" stroke="#263238" stroke-linecap="round" stroke-linejoin="round"/>
<path d="M137.327 120.941C134.836 117.872 129.859 111.745 128.507 110.104C127.233 108.623 125.783 107.303 124.189 106.173C122.42 105.393 122.455 106.699 122.455 106.699L126.149 123.115C126.149 123.115 130.46 125.681 133.466 127.369L137.327 120.941Z" fill="white" stroke="#263238" stroke-linecap="round" stroke-linejoin="round"/>
<path d="M111.785 104.769C111.785 104.769 106.768 105 103.693 108.404C100.619 111.809 100.983 119.3 102.254 123.797C103.526 128.293 105.144 130.773 104.792 132.334C104.439 133.894 103.179 134.409 103.867 135.848C104.555 137.287 108.537 138.848 115.571 138.616C122.606 138.385 123.935 136.882 123.993 135.565C124.051 134.247 123.53 133.143 123.704 132.334C123.877 131.524 128.952 127.028 128.952 122.068C128.952 117.109 126.761 115.381 126.241 111.803C125.721 108.225 125.894 107.711 123.762 106.15C121.629 104.59 114.612 103.786 111.785 104.769Z" fill="white" stroke="#263238" stroke-linecap="round" stroke-linejoin="round"/>
<path d="M109.508 121.958C107.831 123.361 105.97 124.528 103.977 125.426" stroke="#263238" stroke-linecap="round" stroke-linejoin="round"/>
<path d="M110.062 122.536C110.062 122.536 108.819 126.547 105.773 128.761" stroke="#263238" stroke-linecap="round" stroke-linejoin="round"/>
<path d="M122.512 108.398L123.09 113.936L120.662 111.109L122.512 108.398Z" fill="white" stroke="#263238" stroke-linecap="round" stroke-linejoin="round"/>
<path d="M119.281 114.398L122.512 108.398L119.57 105.23L119.281 114.398Z" fill="white" stroke="#263238" stroke-linecap="round" stroke-linejoin="round"/>
<path d="M113.057 94.9658C113.56 96.9649 113.811 99.0195 113.802 101.081C113.785 102.416 113.65 103.747 113.398 105.058L119.282 114.398L120.952 105.728L122.05 99.7285C122.05 99.7285 115.363 99.3471 113.057 94.9658Z" fill="white" stroke="#263238" stroke-linecap="round" stroke-linejoin="round"/>
<path d="M118.934 109.381L119.281 114.398L117.553 111.687L118.934 109.381Z" fill="white" stroke="#263238" stroke-linecap="round" stroke-linejoin="round"/>
<path d="M111.438 104.826L116.801 114.455L118.934 109.381L113.229 101.537L111.438 104.826Z" fill="white" stroke="#263238" stroke-linecap="round" stroke-linejoin="round"/>
<path d="M205.41 109.317H156.736V149.257H205.41V109.317Z" fill="#BDB0C5"/>
<path opacity="0.2" d="M205.41 109.317H156.736V149.257H205.41V109.317Z" fill="black"/>
<path d="M205.41 109.317H156.736V149.257H205.41V109.317Z" stroke="#263238" stroke-linecap="round" stroke-linejoin="round"/>
<path d="M195.103 109.317H146.43V149.257H195.103V109.317Z" fill="#BDB0C5" stroke="#263238" stroke-linecap="round" stroke-linejoin="round"/>
<path d="M213.426 162.701C211.866 160.227 205.409 149.257 205.409 149.257H195.109L200.41 162.701H213.426Z" fill="#BDB0C5"/>
<path opacity="0.2" d="M213.426 162.701C211.866 160.227 205.409 149.257 205.409 149.257H195.109L200.41 162.701H213.426Z" fill="black"/>
<path d="M213.426 162.701C211.866 160.227 205.409 149.257 205.409 149.257H195.109L200.41 162.701H213.426Z" stroke="#263238" stroke-linecap="round" stroke-linejoin="round"/>
<path d="M138.385 162.701C139.945 160.227 146.396 149.257 146.396 149.257H156.702L151.401 162.701H138.385Z" fill="#BDB0C5" stroke="#263238" stroke-linecap="round" stroke-linejoin="round"/>
<path d="M146.396 149.257L141.916 162.701H192.751L195.109 149.257H146.396Z" fill="#BDB0C5" stroke="#263238" stroke-linecap="round" stroke-linejoin="round"/>
<path d="M211.676 123.768V137.142" stroke="#263238" stroke-linecap="round" stroke-linejoin="round"/>
<path d="M214.207 129.553V140.396" stroke="#263238" stroke-linecap="round" stroke-linejoin="round"/>
<path d="M141.199 137.143V145.454" stroke="#263238" stroke-linecap="round" stroke-linejoin="round"/>
<path d="M139.031 141.842V148.344" stroke="#263238" stroke-linecap="round" stroke-linejoin="round"/>
<path d="M103.422 119.126C105.147 121.08 107.149 122.77 109.364 124.143C112.832 126.218 125.548 133.426 126.548 133.83C127.548 134.235 157.916 129.276 157.916 129.276C157.916 129.276 159.65 130.085 160.742 130.773C161.835 131.461 168.759 133.663 168.759 133.663C168.759 133.663 169.221 133.432 168.701 133.033C168.181 132.634 164.84 131.01 164.84 131.01L171.776 132.513C171.776 132.513 172.181 132.224 172.007 131.935C171.834 131.646 165.649 129.282 165.649 129.282L172.585 129.628C172.585 129.628 173.106 128.993 172.759 128.761C172.412 128.53 165.308 126.912 165.308 126.912C165.308 126.912 172.863 126.276 172.921 125.987C172.978 125.698 173.21 125.357 172.747 125.299C172.285 125.241 162.829 124.317 162.829 124.317C162.829 124.317 165.308 122.762 165.597 122.299C165.886 121.837 166.291 120.912 165.829 120.912C165.366 120.912 165.251 121.201 164.621 121.606C163.99 122.01 161.505 122.993 160.811 123.565C160.118 124.137 158.043 125.646 158.043 125.646L130.253 125.704L112.999 112.092" fill="white"/>
<path d="M103.422 119.126C105.147 121.08 107.149 122.77 109.364 124.143C112.832 126.218 125.548 133.426 126.548 133.83C127.548 134.235 157.916 129.276 157.916 129.276C157.916 129.276 159.65 130.085 160.742 130.773C161.835 131.461 168.759 133.663 168.759 133.663C168.759 133.663 169.221 133.432 168.701 133.033C168.181 132.634 164.84 131.01 164.84 131.01L171.776 132.513C171.776 132.513 172.181 132.224 172.007 131.935C171.834 131.646 165.649 129.282 165.649 129.282L172.585 129.628C172.585 129.628 173.106 128.993 172.759 128.761C172.412 128.53 165.308 126.912 165.308 126.912C165.308 126.912 172.863 126.276 172.921 125.987C172.978 125.698 173.21 125.357 172.747 125.299C172.285 125.241 162.829 124.317 162.829 124.317C162.829 124.317 165.308 122.762 165.597 122.299C165.886 121.837 166.291 120.912 165.829 120.912C165.366 120.912 165.251 121.201 164.621 121.606C163.99 122.01 161.505 122.993 160.811 123.565C160.118 124.137 158.043 125.646 158.043 125.646L130.253 125.704L112.999 112.092" stroke="#263238" stroke-linecap="round" stroke-linejoin="round"/>
<path d="M172.735 125.299C172.278 125.241 162.817 124.317 162.817 124.317C162.817 124.317 165.296 122.762 165.585 122.299C165.874 121.837 166.279 120.912 165.816 120.912C165.354 120.912 165.238 121.201 164.608 121.606C163.978 122.01 161.493 122.993 160.799 123.565C160.106 124.137 158.031 125.646 158.031 125.646L130.24 125.704L127.16 123.259C126.004 125.288 123.842 129.091 122.438 131.599C124.599 132.802 126.235 133.697 126.564 133.83C127.547 134.235 157.932 129.276 157.932 129.276C157.932 129.276 159.666 130.085 160.759 130.773C161.851 131.461 168.776 133.663 168.776 133.663C168.776 133.663 169.238 133.432 168.718 133.033C168.198 132.634 164.857 131.01 164.857 131.01L171.793 132.513C171.793 132.513 172.198 132.224 172.024 131.935C171.851 131.646 165.666 129.282 165.666 129.282L172.602 129.628C172.602 129.628 173.122 128.993 172.776 128.761C172.429 128.53 165.308 126.912 165.308 126.912C165.308 126.912 172.862 126.276 172.92 125.987C172.978 125.698 173.197 125.357 172.735 125.299Z" fill="white" stroke="#263238" stroke-linecap="round" stroke-linejoin="round"/>
<path d="M126.199 90.1224C126.298 90.0028 126.428 89.9133 126.575 89.8641C126.722 89.8149 126.88 89.808 127.03 89.8441C127.181 89.8803 127.318 89.958 127.427 90.0686C127.536 90.1791 127.611 90.3179 127.644 90.4692C127.741 91.0962 127.709 91.7362 127.55 92.3504C127.391 92.9645 127.108 93.5398 126.72 94.0412C126.084 94.677 125.506 94.8504 125.506 94.0412C125.666 92.7234 125.898 91.4152 126.199 90.1224Z" fill="white" stroke="#263238" stroke-linecap="round" stroke-linejoin="round"/>
<path d="M119.102 80.0186C118.9 82.8315 117.696 85.4787 115.71 87.4805C113.859 89.3004 111.766 90.8564 109.49 92.1045C109.49 92.1045 109.825 93.9137 110.508 94.4801C111.19 95.0466 112.542 94.9367 112.542 94.9367C113.328 97.0866 114.607 99.0226 116.276 100.59C118.987 103.075 122.154 102.85 123.963 99.1215C125.773 95.3934 126.68 91.6537 126.455 89.5035L126.229 87.3534C126.229 87.3534 120.345 84.0877 119.102 80.0186Z" fill="white" stroke="#263238" stroke-linecap="round" stroke-linejoin="round"/>
<path d="M118.76 91.1973C119.048 91.1973 119.281 90.7832 119.281 90.2725C119.281 89.7617 119.048 89.3477 118.76 89.3477C118.473 89.3477 118.24 89.7617 118.24 90.2725C118.24 90.7832 118.473 91.1973 118.76 91.1973Z" fill="#263238"/>
<path d="M121.589 98.5781C121.876 98.5781 122.109 98.1641 122.109 97.6533C122.109 97.1426 121.876 96.7285 121.589 96.7285C121.301 96.7285 121.068 97.1426 121.068 97.6533C121.068 98.1641 121.301 98.5781 121.589 98.5781Z" fill="#263238"/>
<path d="M123.778 91.1973C124.065 91.1973 124.298 90.7832 124.298 90.2725C124.298 89.7617 124.065 89.3477 123.778 89.3477C123.491 89.3477 123.258 89.7617 123.258 90.2725C123.258 90.7832 123.491 91.1973 123.778 91.1973Z" fill="#263238"/>
<path d="M122.738 89.2891C122.54 89.9815 122.481 90.7065 122.565 91.4219C122.738 92.4045 123.548 94.0749 122.854 94.3639C122.537 94.5083 122.187 94.5631 121.842 94.5223C121.496 94.4815 121.169 94.3468 120.895 94.1327" stroke="#263238" stroke-linecap="round" stroke-linejoin="round"/>
<path d="M117.258 88.602C117.258 88.602 117.535 86.8334 119.853 87.0357" stroke="#263238" stroke-linecap="round" stroke-linejoin="round"/>
<path d="M123.467 87.5783C123.467 87.5783 125.629 85.8443 126.328 89.0175" stroke="#263238" stroke-linecap="round" stroke-linejoin="round"/>
</svg>
